<svg width="500" height="500" viewBox="0 0 500 500" fill="none" xmlns="http://www.w3.org/2000/svg">
<rect width="500" height="500" rx="250" fill="#FF3535"/>
<circle cx="250" cy="250" r="211" fill="white"/>
<path d="M353.5 149.687C350.499 140.875 341.5 135 332.5 135H167.5C157 135 149.5 140.875 146.5 149.687L115 237.812V355.312C115 364.125 121 370 130 370H145C154 370 160 364.125 160 355.312V340.625H340V355.312C340 364.125 346 370 355 370H370C379 370 385 364.125 385 355.312V237.812L353.5 149.687ZM167.5 296.562C155.5 296.562 145 286.281 145 274.531C145 262.781 155.5 252.5 167.5 252.5C179.5 252.5 190 262.781 190 274.531C190 286.281 179.5 296.562 167.5 296.562ZM332.5 296.562C320.5 296.562 310 286.281 310 274.531C310 262.781 320.5 252.5 332.5 252.5C344.5 252.5 355 262.781 355 274.531C355 286.281 344.5 296.562 332.5 296.562ZM145 223.125L167.5 157.031H332.5L355 223.125H145Z" fill="black"/>
<rect x="235" y="120" width="30" height="15" fill="black"/>
<rect x="172" y="115" width="62" height="20" fill="#5E80FA"/>
<rect x="266" y="115" width="62" height="20" fill="#FF3535"/>
</svg>
