<svg width="500" height="500" viewBox="0 0 500 500" fill="none" xmlns="http://www.w3.org/2000/svg">
<rect width="500" height="500" rx="250" fill="#FF3535"/>
<circle cx="250" cy="250" r="211" fill="white"/>
<path d="M236.767 211.222C234.744 205.156 228.678 201.111 222.611 201.111H111.389C104.311 201.111 99.2556 205.156 97.2333 211.222L76 271.889V352.778C76 358.844 80.0444 362.889 86.1111 362.889H96.2222C102.289 362.889 106.333 358.844 106.333 352.778V342.667H227.667V352.778C227.667 358.844 231.711 362.889 237.778 362.889H247.889C253.956 362.889 258 358.844 258 352.778V271.889L236.767 211.222ZM111.389 312.333C103.3 312.333 96.2222 305.256 96.2222 297.167C96.2222 289.078 103.3 282 111.389 282C119.478 282 126.556 289.078 126.556 297.167C126.556 305.256 119.478 312.333 111.389 312.333ZM222.611 312.333C214.522 312.333 207.444 305.256 207.444 297.167C207.444 289.078 214.522 282 222.611 282C230.7 282 237.778 289.078 237.778 297.167C237.778 305.256 230.7 312.333 222.611 312.333ZM96.2222 261.778L111.389 216.278H222.611L237.778 261.778H96.2222Z" fill="black"/>
<path d="M402.767 211.222C400.744 205.156 394.678 201.111 388.611 201.111H277.389C270.311 201.111 265.256 205.156 263.233 211.222L242 271.889V352.778C242 358.844 246.044 362.889 252.111 362.889H262.222C268.289 362.889 272.333 358.844 272.333 352.778V342.667H393.667V352.778C393.667 358.844 397.711 362.889 403.778 362.889H413.889C419.956 362.889 424 358.844 424 352.778V271.889L402.767 211.222ZM277.389 312.333C269.3 312.333 262.222 305.256 262.222 297.167C262.222 289.078 269.3 282 277.389 282C285.478 282 292.556 289.078 292.556 297.167C292.556 305.256 285.478 312.333 277.389 312.333ZM388.611 312.333C380.522 312.333 373.444 305.256 373.444 297.167C373.444 289.078 380.522 282 388.611 282C396.7 282 403.778 289.078 403.778 297.167C403.778 305.256 396.7 312.333 388.611 312.333ZM262.222 261.778L277.389 216.278H388.611L403.778 261.778H262.222Z" fill="black"/>
<g clip-path="url(#clip0)">
<path d="M301.93 168.205L322.909 147.761C323.717 146.981 323.998 145.82 323.653 144.759C323.308 143.698 322.392 142.927 321.295 142.763L290.357 138.265L295.209 107.091C295.39 105.984 294.919 104.886 294.003 104.242C293.096 103.608 291.908 103.544 290.919 104.07L264.851 118.283L252.126 92.5057C251.137 90.5012 247.863 90.5012 246.874 92.5057L233.505 119.589L205.433 105.385C204.435 104.886 203.247 104.986 202.358 105.657C201.469 106.329 201.034 107.444 201.242 108.533L206.857 138.528L177.705 142.763C176.608 142.927 175.692 143.698 175.347 144.759C175.002 145.82 175.292 146.981 176.091 147.761L197.533 168.668L176.054 190.246C175.274 191.035 175.002 192.196 175.365 193.257C175.728 194.3 176.653 195.062 177.75 195.216L207.646 199.089L202.494 229.075C202.303 230.173 202.757 231.279 203.664 231.932C204.571 232.585 205.759 232.676 206.739 232.15L234.049 217.801L247.681 244.404C248.189 245.374 249.196 246 250.294 246C250.303 246 250.321 246 250.339 246C251.455 245.982 252.461 245.338 252.942 244.322L265.414 218.046L292.252 232.159C293.232 232.685 294.429 232.594 295.336 231.941C296.243 231.288 296.688 230.182 296.506 229.084L291.146 197.892L321.322 193.039C322.429 192.849 323.327 192.078 323.653 191.008C323.989 189.946 323.68 188.785 322.873 188.014L301.93 168.205ZM282.692 189.62C282.012 189.72 281.395 190.101 281.005 190.654C280.588 191.216 280.434 191.915 280.552 192.577L284.806 217.402L263.482 206.191C262.856 205.874 262.148 205.81 261.468 206.028C260.815 206.236 260.262 206.726 259.962 207.352L250.103 228.141L239.31 207.116C238.992 206.499 238.457 206.037 237.795 205.828C237.55 205.747 237.278 205.71 237.024 205.71C236.625 205.71 236.208 205.81 235.836 206.001L214.167 217.393L218.258 193.556C218.385 192.867 218.222 192.16 217.804 191.597C217.387 191.026 216.761 190.663 216.063 190.581L192.326 187.497L209.333 170.4C209.804 169.92 210.086 169.257 210.086 168.568C210.077 167.888 209.795 167.235 209.306 166.754L192.335 150.219L215.428 146.863C216.117 146.772 216.734 146.392 217.151 145.82C217.568 145.267 217.732 144.55 217.596 143.861L213.133 120.015L235.446 131.326C236.063 131.634 236.77 131.689 237.423 131.471C238.076 131.253 238.611 130.782 238.911 130.174L249.495 108.732L259.545 129.095C259.863 129.721 260.416 130.201 261.078 130.41C261.74 130.618 262.466 130.555 263.083 130.219L283.753 118.945L279.89 143.725C279.79 144.405 279.962 145.094 280.37 145.639C280.769 146.201 281.377 146.564 282.075 146.664L306.656 150.237L290.048 166.427C289.549 166.908 289.259 167.588 289.259 168.287C289.268 168.985 289.558 169.647 290.066 170.137L306.61 185.774L282.692 189.62Z" fill="#FF3535"/>
<path d="M285.023 157.194L269.731 154.972C269.323 154.908 268.933 154.682 268.688 154.337C268.443 153.992 268.334 153.566 268.398 153.149L270.801 137.739L257.958 144.741C257.568 144.94 257.123 144.986 256.706 144.859C256.298 144.732 255.953 144.432 255.763 144.051L249.505 131.389L242.929 144.714C242.729 145.094 242.403 145.394 241.985 145.521C241.595 145.657 241.151 145.621 240.761 145.43L226.902 138.41L229.668 153.23C229.75 153.657 229.65 154.101 229.414 154.455C229.151 154.809 228.779 155.044 228.335 155.108L213.986 157.194L224.525 167.471C224.834 167.77 225.015 168.178 225.015 168.604C225.015 169.031 224.843 169.448 224.553 169.747L213.968 180.368L228.716 182.282C229.151 182.337 229.541 182.563 229.804 182.917C230.058 183.262 230.176 183.706 230.094 184.132L227.546 198.944L241.015 191.878C241.242 191.751 241.496 191.688 241.759 191.688C241.931 191.688 242.094 191.706 242.239 191.76C242.647 191.897 242.974 192.178 243.183 192.559L249.876 205.629L256.017 192.704C256.198 192.305 256.534 192.014 256.951 191.878C257.368 191.733 257.822 191.77 258.203 191.978L271.454 198.944L268.806 183.516C268.742 183.108 268.833 182.672 269.096 182.327C269.323 181.974 269.704 181.747 270.13 181.674L284.996 179.289L274.701 169.566C274.393 169.266 274.212 168.849 274.212 168.423C274.212 167.997 274.393 167.57 274.692 167.262L285.023 157.194Z" fill="#FF3535"/>
</g>
<defs>
<clipPath id="clip0">
<rect width="155" height="155" fill="white" transform="translate(172 91)"/>
</clipPath>
</defs>
</svg>
