<svg width="500" height="500" viewBox="0 0 500 500" fill="none" xmlns="http://www.w3.org/2000/svg">
<rect width="500" height="500" rx="250" fill="#FF3535"/>
<circle cx="250" cy="250" r="211" fill="white"/>
<path d="M93.935 221.332C93.935 227.468 96.2112 231.922 100.764 234.693C105.316 238.058 115.015 241.522 129.861 245.085C145.498 248.845 156.879 253.992 164.005 260.524C171.329 267.056 174.991 276.458 174.991 288.73C174.991 301.596 170.141 311.988 160.442 319.905C150.941 327.823 138.471 331.781 123.032 331.781C100.665 331.781 80.4752 323.864 62.4628 308.029L77.902 289.621C92.9453 302.487 108.186 308.92 123.626 308.92C131.345 308.92 137.58 307.237 142.331 303.872C147.081 300.309 149.457 295.757 149.457 290.214C149.457 284.672 147.279 280.318 142.925 277.151C138.768 273.984 131.246 271.113 120.36 268.54C101.556 264.186 88.4917 259.039 81.1679 253.101C72.6566 246.569 68.4009 236.573 68.4009 223.113C68.4009 210.049 73.1514 199.856 82.6525 192.532C92.1535 185.01 104.327 181.249 119.172 181.249C139.164 181.249 156.285 187.089 170.537 198.767L157.473 217.175C153.118 213.216 147.279 210.049 139.956 207.674C132.632 205.101 125.407 203.814 118.281 203.814C110.958 203.814 105.019 205.398 100.467 208.565C96.1123 211.534 93.935 215.79 93.935 221.332ZM249.463 203.518C235.013 203.518 222.84 208.664 212.943 218.957C203.046 229.249 198.098 241.72 198.098 256.367C198.098 271.014 203.046 283.485 212.943 293.777C222.84 303.872 235.013 308.92 249.463 308.92C263.912 308.92 276.085 303.872 285.982 293.777C295.879 283.485 300.828 271.014 300.828 256.367C300.828 241.72 295.879 229.249 285.982 218.957C276.085 208.664 263.912 203.518 249.463 203.518ZM249.463 331.485C227.689 331.485 209.479 324.359 194.832 310.107C180.184 295.658 172.861 277.744 172.861 256.367C172.861 234.99 180.184 217.175 194.832 202.924C209.479 188.474 227.689 181.249 249.463 181.249C271.236 181.249 289.446 188.474 304.094 202.924C318.741 217.175 326.065 234.99 326.065 256.367C326.065 277.744 318.642 295.559 303.797 309.81C288.951 324.26 270.84 331.485 249.463 331.485ZM353.574 221.332C353.574 227.468 355.85 231.922 360.403 234.693C364.955 238.058 374.654 241.522 389.499 245.085C405.137 248.845 416.518 253.992 423.644 260.524C430.968 267.056 434.629 276.458 434.629 288.73C434.629 301.596 429.78 311.988 420.081 319.905C410.58 327.823 398.11 331.781 382.671 331.781C360.304 331.781 340.114 323.864 322.102 308.029L337.541 289.621C352.584 302.487 367.825 308.92 383.264 308.92C390.984 308.92 397.219 307.237 401.97 303.872C406.72 300.309 409.095 295.757 409.095 290.214C409.095 284.672 406.918 280.318 402.563 277.151C398.407 273.984 390.885 271.113 379.998 268.54C361.194 264.186 348.13 259.039 340.807 253.101C332.295 246.569 328.04 236.573 328.04 223.113C328.04 210.049 332.79 199.856 342.291 192.532C351.792 185.01 363.965 181.249 378.811 181.249C398.803 181.249 415.924 187.089 430.176 198.767L417.112 217.175C412.757 213.216 406.918 210.049 399.594 207.674C392.271 205.101 385.046 203.814 377.92 203.814C370.596 203.814 364.658 205.398 360.106 208.565C355.751 211.534 353.574 215.79 353.574 221.332Z" fill="black"/>
</svg>
